<svg xmlns="http://www.w3.org/2000/svg" width="160" height="40" viewBox="0 0 160 22">
  <rect width="160" height="50" fill="#000000"/>
  <g fill="#C9B6EA">
    <rect x="4" y="3" width="12" height="16" rx="3"/>
    <rect x="20" y="3" width="12" height="16" rx="3"/>
    <rect x="36" y="3" width="12" height="16" rx="3"/>
    <rect x="52" y="3" width="12" height="16" rx="3"/>
    <rect x="68" y="3" width="12" height="16" rx="3"/>
    <rect x="84" y="3" width="12" height="16" rx="3"/>
    <rect x="100" y="3" width="12" height="16" rx="3"/>
    <rect x="116" y="3" width="12" height="16" rx="3"/>
    <rect x="132" y="3" width="12" height="16" rx="3"/>
    <rect x="148" y="3" width="12" height="16" rx="3"/>
    <rect x="164" y="3" width="12" height="16" rx="3"/>
    <rect x="180" y="3" width="12" height="16" rx="3"/>
    <rect x="196" y="3" width="12" height="16" rx="3"/>
    <rect x="212" y="3" width="12" height="16" rx="3"/>
    <rect x="228" y="3" width="12" height="16" rx="3"/>
  </g>
</svg>

